<mxfile host="app.diagrams.net" modified="2021-04-01T01:55:50.007Z" agent="5.0 (X11; Linux x86_64) AppleWebKit/537.36 (KHTML, like Gecko) Chrome/89.0.4389.72 Safari/537.36" etag="n7tU2u9L9b5MjziCQMNy" version="14.5.4" type="github">
  <diagram id="C5RBs43oDa-KdzZeNtuy" name="Page-1">
    <mxGraphModel dx="1185" dy="645" grid="1" gridSize="10" guides="1" tooltips="1" connect="1" arrows="1" fold="1" page="1" pageScale="1" pageWidth="1600" pageHeight="900" math="0" shadow="0">
      <root>
        <mxCell id="WIyWlLk6GJQsqaUBKTNV-0" />
        <mxCell id="WIyWlLk6GJQsqaUBKTNV-1" parent="WIyWlLk6GJQsqaUBKTNV-0" />
        <mxCell id="P1AtJSLNLFTQf2xVIBTh-8" style="edgeStyle=orthogonalEdgeStyle;rounded=0;orthogonalLoop=1;jettySize=auto;html=1;entryX=0;entryY=0.5;entryDx=0;entryDy=0;" edge="1" parent="WIyWlLk6GJQsqaUBKTNV-1" target="P1AtJSLNLFTQf2xVIBTh-1">
          <mxGeometry relative="1" as="geometry">
            <mxPoint x="160" y="520" as="sourcePoint" />
          </mxGeometry>
        </mxCell>
        <mxCell id="P1AtJSLNLFTQf2xVIBTh-9" style="edgeStyle=orthogonalEdgeStyle;rounded=0;orthogonalLoop=1;jettySize=auto;html=1;exitX=1;exitY=0.5;exitDx=0;exitDy=0;entryX=0;entryY=0.5;entryDx=0;entryDy=0;" edge="1" parent="WIyWlLk6GJQsqaUBKTNV-1" source="P1AtJSLNLFTQf2xVIBTh-0" target="P1AtJSLNLFTQf2xVIBTh-2">
          <mxGeometry relative="1" as="geometry" />
        </mxCell>
        <mxCell id="P1AtJSLNLFTQf2xVIBTh-0" value="main()" style="rounded=0;whiteSpace=wrap;html=1;" vertex="1" parent="WIyWlLk6GJQsqaUBKTNV-1">
          <mxGeometry x="40" y="500" width="120" height="40" as="geometry" />
        </mxCell>
        <mxCell id="P1AtJSLNLFTQf2xVIBTh-11" style="edgeStyle=orthogonalEdgeStyle;rounded=0;orthogonalLoop=1;jettySize=auto;html=1;exitX=1;exitY=0.5;exitDx=0;exitDy=0;entryX=0;entryY=0.5;entryDx=0;entryDy=0;" edge="1" parent="WIyWlLk6GJQsqaUBKTNV-1" source="P1AtJSLNLFTQf2xVIBTh-1" target="P1AtJSLNLFTQf2xVIBTh-3">
          <mxGeometry relative="1" as="geometry" />
        </mxCell>
        <mxCell id="P1AtJSLNLFTQf2xVIBTh-12" style="edgeStyle=orthogonalEdgeStyle;rounded=0;orthogonalLoop=1;jettySize=auto;html=1;exitX=1;exitY=0.5;exitDx=0;exitDy=0;entryX=0;entryY=0.5;entryDx=0;entryDy=0;" edge="1" parent="WIyWlLk6GJQsqaUBKTNV-1" source="P1AtJSLNLFTQf2xVIBTh-1" target="P1AtJSLNLFTQf2xVIBTh-4">
          <mxGeometry relative="1" as="geometry" />
        </mxCell>
        <mxCell id="P1AtJSLNLFTQf2xVIBTh-13" style="edgeStyle=orthogonalEdgeStyle;rounded=0;orthogonalLoop=1;jettySize=auto;html=1;exitX=1;exitY=0.5;exitDx=0;exitDy=0;entryX=0;entryY=0.5;entryDx=0;entryDy=0;" edge="1" parent="WIyWlLk6GJQsqaUBKTNV-1" source="P1AtJSLNLFTQf2xVIBTh-1" target="P1AtJSLNLFTQf2xVIBTh-5">
          <mxGeometry relative="1" as="geometry" />
        </mxCell>
        <mxCell id="P1AtJSLNLFTQf2xVIBTh-14" style="edgeStyle=orthogonalEdgeStyle;rounded=0;orthogonalLoop=1;jettySize=auto;html=1;exitX=1;exitY=0.5;exitDx=0;exitDy=0;entryX=0;entryY=0.5;entryDx=0;entryDy=0;" edge="1" parent="WIyWlLk6GJQsqaUBKTNV-1" source="P1AtJSLNLFTQf2xVIBTh-1" target="P1AtJSLNLFTQf2xVIBTh-6">
          <mxGeometry relative="1" as="geometry" />
        </mxCell>
        <mxCell id="P1AtJSLNLFTQf2xVIBTh-1" value="create_workers()" style="rounded=0;whiteSpace=wrap;html=1;" vertex="1" parent="WIyWlLk6GJQsqaUBKTNV-1">
          <mxGeometry x="210" y="400" width="120" height="60" as="geometry" />
        </mxCell>
        <mxCell id="P1AtJSLNLFTQf2xVIBTh-2" value="create_jobs()" style="rounded=0;whiteSpace=wrap;html=1;" vertex="1" parent="WIyWlLk6GJQsqaUBKTNV-1">
          <mxGeometry x="210" y="560" width="120" height="60" as="geometry" />
        </mxCell>
        <mxCell id="P1AtJSLNLFTQf2xVIBTh-19" style="edgeStyle=orthogonalEdgeStyle;rounded=0;orthogonalLoop=1;jettySize=auto;html=1;exitX=1;exitY=0.5;exitDx=0;exitDy=0;entryX=0;entryY=0.5;entryDx=0;entryDy=0;" edge="1" parent="WIyWlLk6GJQsqaUBKTNV-1" source="P1AtJSLNLFTQf2xVIBTh-3" target="P1AtJSLNLFTQf2xVIBTh-15">
          <mxGeometry relative="1" as="geometry" />
        </mxCell>
        <mxCell id="P1AtJSLNLFTQf2xVIBTh-20" style="edgeStyle=orthogonalEdgeStyle;rounded=0;orthogonalLoop=1;jettySize=auto;html=1;exitX=1;exitY=0.5;exitDx=0;exitDy=0;entryX=0;entryY=0.5;entryDx=0;entryDy=0;" edge="1" parent="WIyWlLk6GJQsqaUBKTNV-1" source="P1AtJSLNLFTQf2xVIBTh-3" target="P1AtJSLNLFTQf2xVIBTh-16">
          <mxGeometry relative="1" as="geometry" />
        </mxCell>
        <mxCell id="P1AtJSLNLFTQf2xVIBTh-21" style="edgeStyle=orthogonalEdgeStyle;rounded=0;orthogonalLoop=1;jettySize=auto;html=1;exitX=1;exitY=0.5;exitDx=0;exitDy=0;entryX=0;entryY=0.5;entryDx=0;entryDy=0;" edge="1" parent="WIyWlLk6GJQsqaUBKTNV-1" source="P1AtJSLNLFTQf2xVIBTh-3" target="P1AtJSLNLFTQf2xVIBTh-17">
          <mxGeometry relative="1" as="geometry" />
        </mxCell>
        <mxCell id="P1AtJSLNLFTQf2xVIBTh-22" style="edgeStyle=orthogonalEdgeStyle;rounded=0;orthogonalLoop=1;jettySize=auto;html=1;exitX=1;exitY=0.5;exitDx=0;exitDy=0;entryX=0;entryY=0.5;entryDx=0;entryDy=0;" edge="1" parent="WIyWlLk6GJQsqaUBKTNV-1" source="P1AtJSLNLFTQf2xVIBTh-3" target="P1AtJSLNLFTQf2xVIBTh-18">
          <mxGeometry relative="1" as="geometry" />
        </mxCell>
        <mxCell id="P1AtJSLNLFTQf2xVIBTh-3" value="work()" style="rounded=1;whiteSpace=wrap;html=1;" vertex="1" parent="WIyWlLk6GJQsqaUBKTNV-1">
          <mxGeometry x="380" y="350" width="120" height="20" as="geometry" />
        </mxCell>
        <mxCell id="P1AtJSLNLFTQf2xVIBTh-4" value="work()" style="rounded=1;whiteSpace=wrap;html=1;" vertex="1" parent="WIyWlLk6GJQsqaUBKTNV-1">
          <mxGeometry x="380" y="390" width="120" height="20" as="geometry" />
        </mxCell>
        <mxCell id="P1AtJSLNLFTQf2xVIBTh-5" value="work()" style="rounded=1;whiteSpace=wrap;html=1;" vertex="1" parent="WIyWlLk6GJQsqaUBKTNV-1">
          <mxGeometry x="380" y="430" width="120" height="20" as="geometry" />
        </mxCell>
        <mxCell id="P1AtJSLNLFTQf2xVIBTh-6" value="work()" style="rounded=1;whiteSpace=wrap;html=1;" vertex="1" parent="WIyWlLk6GJQsqaUBKTNV-1">
          <mxGeometry x="380" y="470" width="120" height="20" as="geometry" />
        </mxCell>
        <mxCell id="P1AtJSLNLFTQf2xVIBTh-15" value="create_socket()" style="rounded=1;whiteSpace=wrap;html=1;" vertex="1" parent="WIyWlLk6GJQsqaUBKTNV-1">
          <mxGeometry x="550" y="300" width="140" height="20" as="geometry" />
        </mxCell>
        <mxCell id="P1AtJSLNLFTQf2xVIBTh-16" value="bind_socket()" style="rounded=1;whiteSpace=wrap;html=1;" vertex="1" parent="WIyWlLk6GJQsqaUBKTNV-1">
          <mxGeometry x="550" y="330" width="140" height="20" as="geometry" />
        </mxCell>
        <mxCell id="P1AtJSLNLFTQf2xVIBTh-17" value="accepting_connection()" style="rounded=1;whiteSpace=wrap;html=1;" vertex="1" parent="WIyWlLk6GJQsqaUBKTNV-1">
          <mxGeometry x="550" y="360" width="140" height="20" as="geometry" />
        </mxCell>
        <mxCell id="P1AtJSLNLFTQf2xVIBTh-26" style="edgeStyle=orthogonalEdgeStyle;rounded=0;orthogonalLoop=1;jettySize=auto;html=1;exitX=1;exitY=0.5;exitDx=0;exitDy=0;entryX=0;entryY=0.5;entryDx=0;entryDy=0;" edge="1" parent="WIyWlLk6GJQsqaUBKTNV-1" source="P1AtJSLNLFTQf2xVIBTh-18" target="P1AtJSLNLFTQf2xVIBTh-23">
          <mxGeometry relative="1" as="geometry" />
        </mxCell>
        <mxCell id="P1AtJSLNLFTQf2xVIBTh-27" style="edgeStyle=orthogonalEdgeStyle;rounded=0;orthogonalLoop=1;jettySize=auto;html=1;exitX=1;exitY=0.5;exitDx=0;exitDy=0;entryX=0;entryY=0.5;entryDx=0;entryDy=0;" edge="1" parent="WIyWlLk6GJQsqaUBKTNV-1" source="P1AtJSLNLFTQf2xVIBTh-18" target="P1AtJSLNLFTQf2xVIBTh-24">
          <mxGeometry relative="1" as="geometry" />
        </mxCell>
        <mxCell id="P1AtJSLNLFTQf2xVIBTh-29" style="edgeStyle=orthogonalEdgeStyle;rounded=0;orthogonalLoop=1;jettySize=auto;html=1;exitX=1;exitY=0.5;exitDx=0;exitDy=0;entryX=0;entryY=0.5;entryDx=0;entryDy=0;" edge="1" parent="WIyWlLk6GJQsqaUBKTNV-1" source="P1AtJSLNLFTQf2xVIBTh-18" target="P1AtJSLNLFTQf2xVIBTh-25">
          <mxGeometry relative="1" as="geometry" />
        </mxCell>
        <mxCell id="P1AtJSLNLFTQf2xVIBTh-18" value="execute_commands()" style="rounded=1;whiteSpace=wrap;html=1;" vertex="1" parent="WIyWlLk6GJQsqaUBKTNV-1">
          <mxGeometry x="550" y="390" width="140" height="20" as="geometry" />
        </mxCell>
        <mxCell id="P1AtJSLNLFTQf2xVIBTh-23" value="end_all_connections()" style="rounded=1;whiteSpace=wrap;html=1;" vertex="1" parent="WIyWlLk6GJQsqaUBKTNV-1">
          <mxGeometry x="740" y="360" width="140" height="20" as="geometry" />
        </mxCell>
        <mxCell id="P1AtJSLNLFTQf2xVIBTh-24" value="list_connections()" style="rounded=1;whiteSpace=wrap;html=1;" vertex="1" parent="WIyWlLk6GJQsqaUBKTNV-1">
          <mxGeometry x="740" y="390" width="140" height="20" as="geometry" />
        </mxCell>
        <mxCell id="P1AtJSLNLFTQf2xVIBTh-32" style="edgeStyle=orthogonalEdgeStyle;rounded=0;orthogonalLoop=1;jettySize=auto;html=1;exitX=1;exitY=0.5;exitDx=0;exitDy=0;" edge="1" parent="WIyWlLk6GJQsqaUBKTNV-1" source="P1AtJSLNLFTQf2xVIBTh-25" target="P1AtJSLNLFTQf2xVIBTh-30">
          <mxGeometry relative="1" as="geometry" />
        </mxCell>
        <mxCell id="P1AtJSLNLFTQf2xVIBTh-25" value="select connection" style="rounded=1;whiteSpace=wrap;html=1;" vertex="1" parent="WIyWlLk6GJQsqaUBKTNV-1">
          <mxGeometry x="740" y="420" width="140" height="20" as="geometry" />
        </mxCell>
        <mxCell id="P1AtJSLNLFTQf2xVIBTh-33" value="If connection is valid" style="edgeStyle=orthogonalEdgeStyle;rounded=0;orthogonalLoop=1;jettySize=auto;html=1;exitX=0.5;exitY=1;exitDx=0;exitDy=0;entryX=0.5;entryY=0;entryDx=0;entryDy=0;" edge="1" parent="WIyWlLk6GJQsqaUBKTNV-1" source="P1AtJSLNLFTQf2xVIBTh-30" target="P1AtJSLNLFTQf2xVIBTh-31">
          <mxGeometry relative="1" as="geometry" />
        </mxCell>
        <mxCell id="P1AtJSLNLFTQf2xVIBTh-30" value="get_target()" style="rounded=1;whiteSpace=wrap;html=1;" vertex="1" parent="WIyWlLk6GJQsqaUBKTNV-1">
          <mxGeometry x="910" y="400" width="140" height="20" as="geometry" />
        </mxCell>
        <mxCell id="P1AtJSLNLFTQf2xVIBTh-31" value="send_target_command" style="rounded=1;whiteSpace=wrap;html=1;" vertex="1" parent="WIyWlLk6GJQsqaUBKTNV-1">
          <mxGeometry x="910" y="460" width="140" height="20" as="geometry" />
        </mxCell>
      </root>
    </mxGraphModel>
  </diagram>
</mxfile>
